# xmcd
#
# Track frame offsets:
#	150
#	30081
#	58047
#	87041
#	106496
#	130473
#	176051
#	215559
#	241390
#	274976
#
# Disc length: 3988 seconds
#
# Revision: 0
# Processed by: cddbd v1.5.2PL0 Copyright (c) Steve Scherf et al.
# Submitted via: audiograbber 1.83.01
#
DISCID=8b0f920a
DTITLE=The Felix Cabrera Band with Jimmy Vivino - Live at The Turning Point
DYEAR=2007
DGENRE=Blues
TTITLE0=I didn't know
TTITLE1=Animalism
TTITLE2=Lovin' Cup
TTITLE3=Kid at Heart
TTITLE4=Too young to die
TTITLE5=Listen Here
TTITLE6=Birds nest on the ground
TTITLE7=Self Argument in D minor
TTITLE8=Maggie's Farm
TTITLE9=Goin' Down Slow
EXTD=
EXTT0=
EXTT1=
EXTT2=
EXTT3=
EXTT4=
EXTT5=
EXTT6=
EXTT7=
EXTT8=
EXTT9=
PLAYORDER=
